<svg xmlns="http://www.w3.org/2000/svg" xmlns:xlink="http://www.w3.org/1999/xlink" viewBox="0 0 1268.27 193"><defs><style>.cls-1{fill:url(#Безымянный_градиент_7);}.cls-2{opacity:0.69;fill:url(#Безымянный_градиент_26);}.cls-3{fill:url(#Безымянный_градиент_7-2);}.cls-4{fill:url(#Безымянный_градиент_39);}.cls-5{fill:#282b30;}</style><linearGradient id="Безымянный_градиент_7" x1="51.89" y1="132.5" x2="267.68" y2="132.5" gradientUnits="userSpaceOnUse"><stop offset="0" stop-color="#84fab0"/><stop offset="1" stop-color="#8fd3f4"/></linearGradient><linearGradient id="Безымянный_градиент_26" x1="49.89" y1="84.5" x2="101.99" y2="84.5" gradientUnits="userSpaceOnUse"><stop offset="0" stop-color="#2daa53"/><stop offset="1" stop-color="#84fab0" stop-opacity="0"/></linearGradient><linearGradient id="Безымянный_градиент_7-2" x1="33.56" y1="-33.56" x2="204.23" y2="137.12" xlink:href="#Безымянный_градиент_7"/><linearGradient id="Безымянный_градиент_39" x1="188.31" y1="132.87" x2="214.02" y2="88.33" gradientUnits="userSpaceOnUse"><stop offset="0" stop-color="#8fd3f4" stop-opacity="0"/><stop offset="0.64" stop-color="#50a2c3" stop-opacity="0.89"/><stop offset="0.93" stop-color="#4da0c1"/></linearGradient></defs><g id="Слой_2" data-name="Слой 2"><g id="Слой_1-2" data-name="Слой 1"><path class="cls-1" d="M267,84A8.7,8.7,0,0,0,259,72H51.89l10,25H239.68l-31.23,71H65.6a1.16,1.16,0,0,0-1.08,1.59l8,19.88A5.61,5.61,0,0,0,77.69,193h141a6.21,6.21,0,0,0,5.64-3.86Z"/><polyline class="cls-2" points="93.27 72 49.89 72 59.89 97 102 97"/><path class="cls-3" d="M43.73,50H236.89l9-25H34.12L24.89,0H0L46.52,119l7,19.7A11,11,0,0,0,63.88,146H191.25a9.89,9.89,0,0,0,9.15-6.15L217.89,97h-25l-10,24h-111Z"/><path class="cls-4" d="M200.4,139.85,217.89,97h-25l-10,24"/><path class="cls-5" d="M426.21,91.87a33.45,33.45,0,0,1,12.36,12.36,34.71,34.71,0,0,1,4.24,17.37,35.06,35.06,0,0,1-4.44,17.27,45.66,45.66,0,0,1-12.54,14.18,54.48,54.48,0,0,1-16.7,8.59,68.65,68.65,0,0,1-19.78,3.19,67.56,67.56,0,0,1-19.88-2.9,50.85,50.85,0,0,1-16.79-8.68q-11-8.3-15.05-20.07l27-12.55a12,12,0,0,0,1.35,4.83,18.4,18.4,0,0,0,4.25,5.59,24.65,24.65,0,0,0,7.52,4.63,29.59,29.59,0,0,0,11.39,1.93,30.84,30.84,0,0,0,9.55-1.35,25,25,0,0,0,7-3.37,14.39,14.39,0,0,0,4.25-4.64,10.81,10.81,0,0,0,1.44-5.3,9.46,9.46,0,0,0-2-5.79,13.28,13.28,0,0,0-6.27-4.25,136.2,136.2,0,0,0-16.31-4.54,140.76,140.76,0,0,1-16.7-4.63A65.31,65.31,0,0,1,355,96.31a32,32,0,0,1-11-12.93,34.42,34.42,0,0,1-3.67-15.63,39.73,39.73,0,0,1,4.34-18,43.21,43.21,0,0,1,11.87-14.67,53.52,53.52,0,0,1,16-8.59,58.36,58.36,0,0,1,18.72-3,60.93,60.93,0,0,1,18.82,2.9,51.55,51.55,0,0,1,16.11,8.49,41,41,0,0,1,11,12.16l-22,15a30.84,30.84,0,0,0-10.13-9,27.55,27.55,0,0,0-13.6-3.38q-10.43,0-16.12,4.63a14.9,14.9,0,0,0-5.69,12.16,8,8,0,0,0,3.18,6.18,31.2,31.2,0,0,0,8.3,4.82,85,85,0,0,0,11.48,3.76Q399,83,405.28,84.64T417.14,88A41,41,0,0,1,426.21,91.87Z"/><path class="cls-5" d="M563.44,25.48h29.33V162.32H563.44V103.45H500.91v58.87H471.57V25.48h29.34V76.82h62.53Z"/><path class="cls-5" d="M689.08,23.55a62.92,62.92,0,0,1,26.25,5.6A68.07,68.07,0,0,1,736.84,44.4a72.89,72.89,0,0,1,14.48,22.38A70.07,70.07,0,0,1,756.63,94a70.93,70.93,0,0,1-5.31,27.21,72.31,72.31,0,0,1-14.48,22.58,69.3,69.3,0,0,1-21.51,15.34,63.29,63.29,0,0,1-52.5,0,68,68,0,0,1-21.42-15.34A73.13,73.13,0,0,1,627,121.21,70.93,70.93,0,0,1,621.72,94,70.07,70.07,0,0,1,627,66.78,73.73,73.73,0,0,1,641.41,44.4a66.81,66.81,0,0,1,21.42-15.25A62.86,62.86,0,0,1,689.08,23.55Zm.09,112.13A34.2,34.2,0,0,0,704,132.4a38.41,38.41,0,0,0,12.12-9,42.65,42.65,0,0,0,8.19-13.22,43.57,43.57,0,0,0,3-16.21,44.32,44.32,0,0,0-3-16.31,42.55,42.55,0,0,0-8.19-13.32,38.72,38.72,0,0,0-12.12-9,35.14,35.14,0,0,0-29.65,0,38.88,38.88,0,0,0-12.13,9A42.71,42.71,0,0,0,654,77.69a44.32,44.32,0,0,0-3,16.31,43.57,43.57,0,0,0,3,16.21,42.81,42.81,0,0,0,8.18,13.22,38.57,38.57,0,0,0,12.13,9A34.16,34.16,0,0,0,689.17,135.68Z"/><path class="cls-5" d="M844.75,25.48A37,37,0,0,1,860,28.67a39.44,39.44,0,0,1,12.47,8.68A41.42,41.42,0,0,1,884,66.2a41,41,0,0,1-3.09,15.93,42.36,42.36,0,0,1-8.4,13,38.79,38.79,0,0,1-12.44,8.79,37.11,37.11,0,0,1-15.25,3.18H814.91v55.2H785.58V25.48Zm-3.91,55a13.27,13.27,0,0,0,9.7-4.15,13.85,13.85,0,0,0,4.13-10.14,13.61,13.61,0,0,0-4.13-9.94,13.26,13.26,0,0,0-9.7-4.14H814.91V80.49Z"/><path class="cls-5" d="M967.88,25.48a37,37,0,0,1,15.28,3.19,39.33,39.33,0,0,1,12.47,8.68,42.14,42.14,0,0,1,8.42,44.78,42.52,42.52,0,0,1-8.39,13,38.73,38.73,0,0,1-12.45,8.79A37,37,0,0,1,968,107.12H938.05v55.2H908.71V25.48Zm-3.91,55a13.26,13.26,0,0,0,9.7-4.15A13.81,13.81,0,0,0,977.8,66.2a13.57,13.57,0,0,0-4.13-9.94,13.25,13.25,0,0,0-9.7-4.14H938.05V80.49Z"/><path class="cls-5" d="M1032,25.48h85.49V52.12h-56.16v24.7h49.41v26.63h-49.41v32.23h56.16v26.64H1032Z"/><path class="cls-5" d="M1247.81,66.2a41.77,41.77,0,0,1-7,23.26,39.34,39.34,0,0,1-7.91,8.69,42.85,42.85,0,0,1-10,6.08l45.36,58.09H1234.1l-42.26-55.2h-13.13v55.2h-29.33V25.48h59.06a37.58,37.58,0,0,1,15.34,3.19,39.08,39.08,0,0,1,12.54,8.68,41.4,41.4,0,0,1,11.49,28.85Zm-43,14.29a13.05,13.05,0,0,0,9.65-4.15,14,14,0,0,0,4-10.14,13.73,13.73,0,0,0-4-9.94,13,13,0,0,0-9.65-4.14h-26.06V80.49Z"/></g></g></svg>