<svg width="32" height="32" viewBox="0 0 32 32" fill="none" xmlns="http://www.w3.org/2000/svg">
<path d="M4 16H16V18H4V16Z" fill="#1D1E23"/>
<path d="M2 11H12V13H2V11Z" fill="#1D1E23"/>
<path d="M29.9184 16.606L26.9184 9.606C26.8414 9.42608 26.7132 9.27273 26.5499 9.165C26.3865 9.05727 26.1951 8.99989 25.9994 9H22.9994V7C22.9994 6.73478 22.894 6.48043 22.7065 6.29289C22.5189 6.10536 22.2646 6 21.9994 6H5.99936V8H20.9994V20.556C20.5437 20.8206 20.1449 21.1728 19.826 21.5922C19.5071 22.0117 19.2744 22.4902 19.1414 23H12.8574C12.614 22.0573 12.0351 21.2358 11.2294 20.6894C10.4236 20.143 9.44617 19.9092 8.48036 20.0319C7.51454 20.1546 6.62662 20.6253 5.98304 21.3558C5.33945 22.0863 4.98438 23.0264 4.98438 24C4.98437 24.9736 5.33945 25.9137 5.98304 26.6442C6.62662 27.3747 7.51454 27.8454 8.48036 27.9681C9.44617 28.0908 10.4236 27.857 11.2294 27.3106C12.0351 26.7642 12.614 25.9427 12.8574 25H19.1414C19.3589 25.8582 19.8564 26.6194 20.5551 27.1632C21.2539 27.7069 22.114 28.0021 22.9994 28.0021C23.8847 28.0021 24.7448 27.7069 25.4436 27.1632C26.1423 26.6194 26.6398 25.8582 26.8574 25H28.9994C29.2646 25 29.5189 24.8946 29.7065 24.7071C29.894 24.5196 29.9994 24.2652 29.9994 24V17C29.9994 16.8645 29.9718 16.7305 29.9184 16.606ZM8.99936 26C8.6038 26 8.21712 25.8827 7.88822 25.6629C7.55932 25.4432 7.30297 25.1308 7.1516 24.7654C7.00022 24.3999 6.96062 23.9978 7.03779 23.6098C7.11496 23.2219 7.30544 22.8655 7.58514 22.5858C7.86485 22.3061 8.22122 22.1156 8.60918 22.0384C8.99714 21.9613 9.39927 22.0009 9.76472 22.1522C10.1302 22.3036 10.4425 22.56 10.6623 22.8889C10.8821 23.2178 10.9994 23.6044 10.9994 24C10.9988 24.5303 10.7879 25.0387 10.413 25.4136C10.038 25.7886 9.52963 25.9995 8.99936 26ZM22.9994 11H25.3394L27.4834 16H22.9994V11ZM22.9994 26C22.6038 26 22.2171 25.8827 21.8882 25.6629C21.5593 25.4432 21.303 25.1308 21.1516 24.7654C21.0002 24.3999 20.9606 23.9978 21.0378 23.6098C21.115 23.2219 21.3054 22.8655 21.5851 22.5858C21.8648 22.3061 22.2212 22.1156 22.6092 22.0384C22.9971 21.9613 23.3993 22.0009 23.7647 22.1522C24.1302 22.3036 24.4425 22.56 24.6623 22.8889C24.8821 23.2178 24.9994 23.6044 24.9994 24C24.9988 24.5303 24.7879 25.0387 24.413 25.4136C24.038 25.7886 23.5296 25.9995 22.9994 26ZM27.9994 23H26.8574C26.6371 22.1434 26.1388 21.3842 25.4406 20.8413C24.7424 20.2983 23.8838 20.0025 22.9994 20V18H27.9994V23Z" fill="#1D1E23"/>
</svg>
